<svg version="1" xmlns="http://www.w3.org/2000/svg" width="750.667" height="750.667" viewBox="0 0 563.000000 563.000000"><path d="M179.5 87.6c-29.1 13.5-53.3 24.9-53.7 25.3-.7.6 103 51.1 105 51.1 1.7 0 106.3-49.5 106.3-50.4 0-.8-102.2-50.6-103.8-50.6-.5 0-24.6 11.1-53.8 24.6zM391.3 87.8c-32.2 15.1-51.8 24.9-51 25.4.9.6.8.8-.3.8-.8 0-1 .3-.5.9 1.4 1.3 99.1 48.1 100.4 48.1.8 0 1.1 17.7 1.1 59.5 0 32.7.3 59.5.6 59.5s24.4-11.3 53.5-25.1l52.9-25.2v-59.4c0-58.4 0-59.4-1.9-58.3-2.8 1.5-3.8 1.2-1.6-.4 1.8-1.3.8-2-12.5-8.3-8-3.8-31-14.9-51.1-24.6-20.1-9.7-36.7-17.7-37-17.6-.2 0-23.9 11.2-52.6 24.7zM534 119.5c-4.7 2.4-8.9 4.4-9.5 4.4-.5 0 2.8-2 7.5-4.4 4.7-2.4 9-4.4 9.5-4.4.6 0-2.8 2-7.5 4.4zm-21 10c-4.7 2.4-8.9 4.4-9.5 4.4-.5 0 2.8-2 7.5-4.4 4.7-2.4 9-4.4 9.5-4.4.6 0-2.8 2-7.5 4.4zm-19 9c-4.7 2.4-8.9 4.4-9.5 4.4-.5 0 2.8-2 7.5-4.4 4.7-2.4 9-4.4 9.5-4.4.6 0-2.8 2-7.5 4.4zm-21 10c-4.7 2.4-8.9 4.4-9.5 4.4-.5 0 2.8-2 7.5-4.4 4.7-2.4 9-4.4 9.5-4.4.6 0-2.8 2-7.5 4.4zm-19 9c-4.7 2.4-8.9 4.4-9.5 4.4-.5 0 2.8-2 7.5-4.4 4.7-2.4 9-4.4 9.5-4.4.6 0-2.8 2-7.5 4.4zM71.2 138.3c-28.6 13.3-52 24.3-51.7 24.5.5.6 98.4 47.1 102.8 48.9l3.8 1.5 50.9-23.8c28-13.2 51-24.2 51-24.5 0-.3-23.3-11.7-51.7-25.4-28.5-13.7-52-24.9-52.3-25.1-.3-.1-24.1 10.6-52.8 23.9z"/><path d="M16 222.2v59.5l2.3 1.2 2.2 1.1-2.3-.6-2.2-.5.2 58.1.3 58.1 106.3 50.4L229 500l53-25.2 53-25.2.2-10 .2-10.1.3 9.2c.3 6.5.7 9.3 1.6 9.2.7 0 24.2-11 52.2-24.3l51-24.3.5-57.4c.3-31.6.3-57.6-.1-57.9-.3-.3-.8-1-1-1.6-.2-.6-22.4 9.4-51.4 23.2l-51 24.2-.5 11.3-.5 11.4-.8-15.9c-.4-8.8-.5-40-.1-69.3.8-57.9 1-55-4.6-51.8-1.4.8-2.9 1.4-3.5 1.4-.5 0 .7-.9 2.8-2 2.2-1.1 3.7-2.2 3.5-2.3-1-1-99.5-47.9-100.4-47.9-.6 0-21.5 9.6-46.5 21.3-25 11.7-48.8 22.9-52.9 24.8l-7.4 3.5 4.4 2.3c7.1 3.7 3.8 2.8-4.2-1.2-8.7-4.2-107.7-51.4-109.5-52.1-1-.4-1.3 11.8-1.3 58.9zm300 .3c-3.6 1.9-6.9 3.4-7.5 3.4-.5 0 1.9-1.5 5.5-3.4s7-3.4 7.5-3.4c.6 0-1.9 1.5-5.5 3.4zM147 224c4.1 2.1 7.1 3.9 6.5 3.9-.5 0-4.4-1.8-8.5-3.9-4.1-2.1-7-3.9-6.5-3.9.6 0 4.4 1.8 8.5 3.9zm149 8c-4.1 2.1-7.9 3.9-8.5 3.9-.5 0 2.4-1.8 6.5-3.9 4.1-2.1 8-3.9 8.5-3.9.6 0-2.4 1.8-6.5 3.9zm-130 1c4.1 2.1 7.1 3.9 6.5 3.9-.5 0-4.4-1.8-8.5-3.9-4.1-2.1-7-3.9-6.5-3.9.6 0 4.4 1.8 8.5 3.9zm110 8.5c-3.6 1.9-6.9 3.4-7.5 3.4-.5 0 1.9-1.5 5.5-3.4s7-3.4 7.5-3.4c.6 0-1.9 1.5-5.5 3.4zm-89 1.5c4.1 2.1 7.1 3.9 6.5 3.9-.5 0-4.4-1.8-8.5-3.9-4.1-2.1-7-3.9-6.5-3.9.6 0 4.4 1.8 8.5 3.9zm69 8c-4.1 2.1-7.9 3.9-8.5 3.9-.5 0 2.4-1.8 6.5-3.9 4.1-2.1 8-3.9 8.5-3.9.6 0-2.4 1.8-6.5 3.9zm-50 1c4.1 2.1 7.1 3.9 6.5 3.9-.5 0-4.4-1.8-8.5-3.9-4.1-2.1-7-3.9-6.5-3.9.6 0 4.4 1.8 8.5 3.9zm29.7 8.6L229 264l-5.8-2.9c-3.1-1.7-5.3-3-4.9-3.1.4 0 3 1.1 5.7 2.5l5 2.5 5.7-2.9c3.2-1.7 6.3-3 6.8-3 .6 0-2 1.6-5.8 3.5zM36 291c1.9 1.1 3.1 1.9 2.5 1.9-.5 0-2.6-.8-4.5-1.9-1.9-1.1-3-1.9-2.5-1.9.6 0 2.6.8 4.5 1.9zm20 9.5c2.5 1.3 4.1 2.4 3.5 2.4-.5 0-3-1.1-5.5-2.4-2.5-1.3-4-2.4-3.5-2.4.6 0 3 1.1 5.5 2.4zm20 9.5c1.9 1.1 3.1 1.9 2.5 1.9-.5 0-2.6-.8-4.5-1.9-1.9-1.1-3-1.9-2.5-1.9.6 0 2.6.8 4.5 1.9zm20 9.5c2.5 1.3 4.1 2.4 3.5 2.4-.5 0-3-1.1-5.5-2.4-2.5-1.3-4-2.4-3.5-2.4.6 0 3 1.1 5.5 2.4zm20 9.5c1.9 1.1 3.1 1.9 2.5 1.9-.5 0-2.6-.8-4.5-1.9-1.9-1.1-3-1.9-2.5-1.9.6 0 2.6.8 4.5 1.9zm6.4 3.9c-.8.9-2.2-1.2-1.7-2.6.6-1.5.7-1.4 1.3.3.4 1 .6 2.1.4 2.3zM133 337c4.1 2.1 7.1 3.9 6.5 3.9-.5 0-4.4-1.8-8.5-3.9-4.1-2.1-7-3.9-6.5-3.9.6 0 4.4 1.8 8.5 3.9zm194 0c-3 1.6-5.9 2.9-6.5 2.9-.5 0 1.5-1.3 4.5-2.9 3-1.6 6-2.9 6.5-2.9.6 0-1.5 1.3-4.5 2.9zm-173 10c4.1 2.1 7.1 3.9 6.5 3.9-.5 0-4.4-1.8-8.5-3.9-4.1-2.1-7-3.9-6.5-3.9.6 0 4.4 1.8 8.5 3.9zm152 0c-3 1.6-5.9 2.9-6.5 2.9-.5 0 1.5-1.3 4.5-2.9 3-1.6 6-2.9 6.5-2.9.6 0-1.5 1.3-4.5 2.9zm-133 9c4.1 2.1 7.1 3.9 6.5 3.9-.5 0-4.4-1.8-8.5-3.9-4.1-2.1-7-3.9-6.5-3.9.6 0 4.4 1.8 8.5 3.9zm114 0c-3 1.6-5.9 2.9-6.5 2.9-.5 0 1.5-1.3 4.5-2.9 3-1.6 6-2.9 6.5-2.9.6 0-1.5 1.3-4.5 2.9zm-93 10c4.1 2.1 7.1 3.9 6.5 3.9-.5 0-4.4-1.8-8.5-3.9-4.1-2.1-7-3.9-6.5-3.9.6 0 4.4 1.8 8.5 3.9zm72 0c-3 1.6-5.9 2.9-6.5 2.9-.5 0 1.5-1.3 4.5-2.9 3-1.6 6-2.9 6.5-2.9.6 0-1.5 1.3-4.5 2.9zm-53 9c4.1 2.1 7.1 3.9 6.5 3.9-.5 0-4.4-1.8-8.5-3.9-4.1-2.1-7-3.9-6.5-3.9.6 0 4.4 1.8 8.5 3.9zm34 0c-3 1.6-5.9 2.9-6.5 2.9-.5 0 1.5-1.3 4.5-2.9 3-1.6 6-2.9 6.5-2.9.6 0-1.5 1.3-4.5 2.9zm-16.3 8.7c-.3.2-1.8-.2-3.4-1.1-1.5-.8-2.4-1.5-2-1.6.5 0 1.7.5 2.8 1 1.5.9 1.9.7 2-.7.1-1.7.2-1.7.6 0 .3 1 .3 2.1 0 2.4z"/></svg>